Coordinates
version=1
nRows=38
nColumns=12
inDegrees=yes

Units are S.I. units (second, meters, Newtons, ...)
Angles are in degrees

endheader
time	SC_y	SC_z	SC_x	AC_y	AC_z	AC_x	GH_y	GH_z	GH_yy	EL_x	PS_y
       0.0              -48.02          -0.88          56.13          50.25         -15.15         -7.654         -115.5          13.23          28.89          32.87          112.6
   0.02138              -48.02        -0.8764          56.12          50.25         -15.15         -7.654         -115.5          13.23          28.87          32.88          112.6
   0.04276              -48.02        -0.8727          56.12          50.25         -15.15         -7.654         -115.4          13.23          28.85          32.89          112.6
   0.06414              -48.02        -0.8687          56.11          50.25         -15.14         -7.653         -115.4          13.22          28.83          32.89          112.6
   0.08552              -48.02        -0.8644           56.1          50.25         -15.14         -7.653         -115.4          13.22          28.81           32.9          112.6
    0.1069              -48.02        -0.8598          56.09          50.25         -15.14         -7.653         -115.4          13.22          28.78          32.91          112.6
    0.1283              -48.01         -0.855          56.08          50.25         -15.13         -7.653         -115.3          13.21          28.75          32.91          112.6
    0.1497              -48.01        -0.8498          56.07          50.25         -15.13         -7.652         -115.3          13.21          28.72          32.92          112.6
     0.171              -48.01        -0.8442          56.06          50.25         -15.12         -7.652         -115.3           13.2          28.69          32.93          112.6
    0.1924              -48.01        -0.8382          56.05          50.24         -15.12         -7.652         -115.2           13.2          28.66          32.94          112.6
    0.2138               -48.0        -0.8318          56.04          50.24         -15.11         -7.651         -115.2          13.19          28.62          32.95          112.6
    0.2352               -48.0        -0.8249          56.02          50.24          -15.1         -7.651         -115.1          13.19          28.59          32.96          112.6
    0.2566               -48.0        -0.8175          56.01          50.24          -15.1          -7.65         -115.1          13.18          28.54          32.97          112.6
    0.2779               -48.0        -0.8094          55.99          50.24         -15.09          -7.65         -115.0          13.17           28.5          32.99          112.7
    0.2993              -47.99        -0.8007          55.97          50.24         -15.08          -7.65         -115.0          13.16          28.45           33.0          112.7
    0.3207              -47.99        -0.7913          55.95          50.24         -15.08         -7.649         -114.9          13.16           28.4          33.02          112.7
    0.3421              -47.98         -0.781          55.93          50.24         -15.07         -7.648         -114.8          13.15          28.34          33.03          112.7
    0.3635              -47.98        -0.7699          55.91          50.23         -15.06         -7.648         -114.8          13.14          28.28          33.05          112.7
    0.3848              -47.98        -0.7577          55.89          50.23         -15.05         -7.647         -114.7          13.13          28.21          33.07          112.7
    0.4062              -47.97        -0.7443          55.86          50.23         -15.03         -7.646         -114.6          13.12          28.13          33.09          112.7
    0.4276              -47.96        -0.7296          55.83          50.23         -15.02         -7.646         -114.5           13.1          28.05          33.11          112.7
     0.449              -47.96        -0.7135           55.8          50.23         -15.01         -7.645         -114.4          13.09          27.96          33.14          112.7
    0.4704              -47.95        -0.6957          55.77          50.22         -14.99         -7.644         -114.3          13.07          27.86          33.17          112.7
    0.4917              -47.94        -0.6759          55.73          50.22         -14.97         -7.643         -114.1          13.06          27.75           33.2          112.7
    0.5131              -47.93         -0.654          55.68          50.22         -14.95         -7.641         -114.0          13.04          27.63          33.23          112.7
    0.5345              -47.92        -0.6295          55.63          50.21         -14.93          -7.64         -113.8          13.01          27.49          33.27          112.7
    0.5559              -47.91         -0.602          55.58          50.21         -14.91         -7.638         -113.6          12.99          27.34          33.32          112.7
    0.5773               -47.9        -0.5711          55.52          50.21         -14.88         -7.637         -113.4          12.96          27.16          33.37          112.8
    0.5986              -47.89        -0.5362          55.45           50.2         -14.85         -7.635         -113.2          12.93          26.97          33.42          112.8
      0.62              -47.87        -0.4966          55.37           50.2         -14.82         -7.633         -112.9           12.9          26.75          33.49          112.8
    0.6414              -47.86        -0.4514          55.28          50.19         -14.78          -7.63         -112.6          12.86          26.49          33.56          112.8
    0.6628              -47.83        -0.3995          55.18          50.18         -14.73         -7.627         -112.3          12.81           26.2          33.64          112.8
    0.6842              -47.81        -0.3396          55.06          50.17         -14.68         -7.624         -111.9          12.76          25.86          33.74          112.9
    0.7056              -47.78          -0.27          54.92          50.16         -14.62          -7.62         -111.4           12.7          25.47          33.85          112.9
    0.7269              -47.75        -0.1885          54.76          50.15         -14.55         -7.615         -110.9          12.63          25.02          33.98          112.9
    0.7483              -47.71       -0.09253          54.57          50.14         -14.46          -7.61         -110.2          12.55          24.48          34.13          113.0
    0.7697              -47.67        0.02157          54.34          50.12         -14.36         -7.604         -109.5          12.45          23.84          34.31          113.0
    0.7911              -47.62         0.1583          54.07           50.1         -14.24         -7.596         -108.5          12.33          23.07          34.53          113.1
